# xmcd CD database file
#
# Track frame offsets:
#	150
#	9425
#	34025
#	47102
#	64397
#	82200
#	103112
#	114015
#	141037
#	160110
#	175307
#	198672
#	220025
#	242867
#	254152
#	266947
#	285500
#
# Disc length: 3997 seconds
#
# Revision: 0
# Processed by: cddbd v1.4PL0 Copyright (c) Steve Scherf et al.
# Submitted via: CDex 1.50
#
DISCID=fe0f9b11
DTITLE=Various Artiste - Ambiances Magnétiques (Hourra pour la bastringue!) Volume 2
DYEAR=1997
DGENRE=Jazz
TTITLE0=Robert M. Lepage/Les clarinetes ont-elles un escaliers de secours?
TTITLE1=Jean Derome et les Dnagereux Zhoms/Navré
TTITLE2=Jean Derome/Musiques pour UBU
TTITLE3=André Duchesne/Le temps des Bombes
TTITLE4=René Lussier/Trois Histoires
TTITLE5=Robert M. Lepage and René Lussier/Chants et danses du monde inanimé
TTITLE6=Jean Derome/La Bête
TTITLE7=Pierre Cartier/Les fleurs du tapis
TTITLE8=Diane Labrosse/Face cachée des choses
TTITLE9=Robert M. Lepage/ Les choses dernières
TTITLE10=Joane Hétu/Castor et Compagnie
TTITLE11=René Lussier and Pierre Tanguay/La vie en bat-Chèvre
TTITLE12=L'Orkestra des pas perdus/T'auras pas ta pomme
TTITLE13=Jean Derome/3 Musiques pour UBU
TTITLE14=Robert M Lepage/La plante humaine
TTITLE15=Jean Derome/Je me souviens-Hommage è Beorges Perec
TTITLE16=René Lussier/Fin du travail
EXTD=YEAR: 1997
EXTT0=
EXTT1=
EXTT2=
EXTT3=
EXTT4=
EXTT5=
EXTT6=
EXTT7=
EXTT8=
EXTT9=
EXTT10=
EXTT11=
EXTT12=
EXTT13=
EXTT14=
EXTT15=
EXTT16=
PLAYORDER=
